<?xml version="1.0" encoding="UTF-8" standalone="no"?>
<!DOCTYPE svg PUBLIC "-//W3C//DTD SVG 1.1//EN" "http://www.w3.org/Graphics/SVG/1.1/DTD/svg11.dtd">
<svg width="100%" height="100%" viewBox="0 0 1074 1844" version="1.1" xmlns="http://www.w3.org/2000/svg" xmlns:xlink="http://www.w3.org/1999/xlink" xml:space="preserve" xmlns:serif="http://www.serif.com/" style="fill-rule:evenodd;clip-rule:evenodd;stroke-linejoin:round;stroke-miterlimit:2;">
    <g transform="matrix(1,0,0,1,-553.791006,-1103.323944)">
        <g transform="matrix(1,0,0,1,0,313.456317)">
            <g transform="matrix(0.674542,0,0,0.674542,180.235758,257.068876)">
                <ellipse cx="816.436" cy="1052.513" rx="262.645" ry="262.645" style="fill:rgb(95,0,0);fill-opacity:0.21;"/>
            </g>
            <g transform="matrix(0.562118,0,0,0.562118,272.022525,375.396227)">
                <ellipse cx="816.436" cy="1052.513" rx="262.645" ry="262.645" style="fill:rgb(224,0,0);fill-opacity:0.12;"/>
            </g>
            <g transform="matrix(0.449695,0,0,0.449695,363.809292,493.723578)">
                <ellipse cx="816.436" cy="1052.513" rx="262.645" ry="262.645" style="fill:rgb(224,0,0);fill-opacity:0.26;"/>
            </g>
            <g transform="matrix(0.337271,0,0,0.337271,455.596059,612.050929)">
                <ellipse cx="816.436" cy="1052.513" rx="262.645" ry="262.645" style="fill:rgb(255,0,0);fill-opacity:0.49;"/>
            </g>
            <g transform="matrix(0.224847,0,0,0.224847,547.382826,730.378279)">
                <ellipse cx="816.436" cy="1052.513" rx="262.645" ry="262.645" style="fill:rgb(255,95,95);fill-opacity:0.6;"/>
            </g>
            <g transform="matrix(0.112424,0,0,0.112424,639.169593,848.70563)">
                <ellipse cx="816.436" cy="1052.513" rx="262.645" ry="262.645" style="fill:white;fill-opacity:0.68;"/>
            </g>
        </g>
        <g transform="matrix(1,0,0,1,0,221.226445)">
            <path d="M849.067,1236.428L849.067,2487.925C849.067,2618.385 743.307,2724.145 612.847,2724.145L612.846,2724.145L612.846,1362.768C612.846,1292.992 669.41,1236.428 739.186,1236.428L849.067,1236.428Z" style="fill:white;"/>
        </g>
        <g transform="matrix(0.810991,-0.547308,0.865986,1.283202,-1921.134382,-351.754743)">
            <path d="M1120.364,2323.475L1120.364,3048.397C1120.364,3048.397 1015.198,2647.666 961.247,2442.091C953.493,2412.544 966.691,2382.337 997.337,2359.492C1027.982,2336.647 1072.974,2323.475 1120.363,2323.475L1120.364,2323.475Z" style="fill:white;"/>
        </g>
        <g transform="matrix(0,0.916244,-0.932319,0,2909.195323,604.095708)">
            <path d="M1789.601,2049.732C1774.036,2093.462 1732.045,2122.746 1684.903,2122.746C1565.511,2122.752 1321.657,2122.752 1157.17,2122.752C1032.583,2122.752 931.585,2023.495 931.584,1901.056C931.584,1901.055 931.584,1901.054 931.584,1901.053C931.584,1656.335 1129.547,1457.655 1373.382,1457.655C1617.216,1457.655 1815.179,1656.335 1815.179,1901.053C1815.179,1951.913 1806.462,2002.187 1789.601,2049.732Z" style="fill:white;"/>
        </g>
    </g>
</svg>
